<?xml version="1.0" encoding="utf-8"?>
<!-- Generator: Adobe Illustrator 16.0.0, SVG Export Plug-In . SVG Version: 6.00 Build 0)  -->
<!DOCTYPE svg PUBLIC "-//W3C//DTD SVG 1.1//EN" "http://www.w3.org/Graphics/SVG/1.1/DTD/svg11.dtd">
<svg version="1.1" id="圖層_1" xmlns="http://www.w3.org/2000/svg" xmlns:xlink="http://www.w3.org/1999/xlink" x="0px" y="0px"
	 width="50.973px" height="47.265px" viewBox="0 0 50.973 47.265" enable-background="new 0 0 50.973 47.265" xml:space="preserve">
<g>
	<path fill="#FFC329" d="M35.671,42.727C25.27,33.747,12.341,24.353,3.135,14.15c2.313-2.814,9.135-11.349,9.999-11.661
		c0,0,2.043,1.626,3.41,2.912c9.516,8.96,19.62,17.896,28.604,27.39C45.147,32.791,39.984,39.604,35.671,42.727z"/>
	<path fill="#FF484C" d="M3.135,14.15c-0.699-0.61-1.385-1.236-2.057-1.876c-1.412-1.347-1.43-3.582-0.091-5.001
		c1.77-1.875,3.439-3.863,5.025-5.9c1.119-1.437,3.139-1.799,4.682-0.831l2.44,1.948"/>
	<path fill="none" stroke="#23295B" stroke-width="1.4" stroke-linecap="round" stroke-linejoin="round" stroke-miterlimit="10" d="
		M4.838,15.608c2.96-4.008,6.476-7.605,10.416-10.653"/>
	<path fill="none" stroke="#23295B" stroke-width="1.4" stroke-linecap="round" stroke-linejoin="round" stroke-miterlimit="10" d="
		M8.134,11.253C18.5,20.617,28.864,29.981,39.229,39.346"/>
	<path fill="none" stroke="#23295B" stroke-width="1.4" stroke-linecap="round" stroke-linejoin="round" stroke-miterlimit="10" d="
		M10.991,9.615c10.213,9.172,20.427,18.345,30.643,27.516"/>
	<path fill="none" stroke="#23295B" stroke-width="1.4" stroke-linecap="round" stroke-linejoin="round" stroke-miterlimit="10" d="
		M35.835,42.763c4.333,0.568,8.63,1.413,12.857,2.528c-0.615-4.517-2.188-8.897-4.583-12.773"/>
	<path fill="none" stroke="#23295B" stroke-width="1.4" stroke-linecap="round" stroke-linejoin="round" stroke-miterlimit="10" d="
		M50.273,46.564c-0.92-0.834-0.441,0.189-1.36-0.646"/>
</g>
</svg>
