<?xml version="1.0" encoding="utf-8"?>
<!-- Generator: Adobe Illustrator 16.0.0, SVG Export Plug-In . SVG Version: 6.00 Build 0)  -->
<!DOCTYPE svg PUBLIC "-//W3C//DTD SVG 1.1//EN" "http://www.w3.org/Graphics/SVG/1.1/DTD/svg11.dtd">
<svg version="1.1" xmlns="http://www.w3.org/2000/svg" xmlns:xlink="http://www.w3.org/1999/xlink" x="0px" y="0px" width="735px"
	 height="1034.372px" viewBox="0 0 735 1034.372" enable-background="new 0 0 735 1034.372" xml:space="preserve">
<g id="圖層_1" display="none">
	
		<image display="inline" overflow="visible" width="734" height="918" xlink:href="614C9F0B.jpg"  transform="matrix(0.9999 0 0 0.9999 1 0.5005)">
	</image>
</g>
<g id="圖層_3" display="none">
	
		<image display="inline" overflow="visible" width="734" height="1034" xlink:href="614C9F09.jpg"  transform="matrix(0.9999 0 0 0.9999 0.5454 0.5005)">
	</image>
</g>
<g id="圖層_2">
	<path fill="#FBF2E9" d="M89.629,0.558c0,0,22.352,63.972,46.352,99.305s39.509,96.652,42.843,141.985
		c3.333,45.333,20.087,109.993,72.754,148.66s102.044,47.33,150.044,41.33c26.88-3.36,52.44-13.402,75.645-27.145
		c7.803-4.622,15.432-9.523,23.763-13.177c18.173-7.97,37.259-13.859,56.636-18.076c22.439-4.883,45.55-7.094,68.495-6.988
		c15.332,0.07,30.525,1.282,45.708,3.384c0,0,45.131,5.999,62.131,5.333V1034.5l-734-0.115V0.5L89.629,0.558z"/>
</g>
</svg>
