<?xml version="1.0" encoding="utf-8"?>
<!-- Generator: Adobe Illustrator 16.0.0, SVG Export Plug-In . SVG Version: 6.00 Build 0)  -->
<!DOCTYPE svg PUBLIC "-//W3C//DTD SVG 1.1//EN" "http://www.w3.org/Graphics/SVG/1.1/DTD/svg11.dtd">
<svg version="1.1" xmlns="http://www.w3.org/2000/svg" xmlns:xlink="http://www.w3.org/1999/xlink" x="0px" y="0px"
	 width="1903.762px" height="917.885px" viewBox="0 0 1903.762 917.885" enable-background="new 0 0 1903.762 917.885"
	 xml:space="preserve">
<g id="圖層_1" display="none">
	
		<image display="inline" overflow="visible" width="1904" height="918" xlink:href="DCF12F07.jpg"  transform="matrix(0.9999 0 0 0.9999 0 0)">
	</image>
</g>
<g id="圖層_2">
	<path fill="#FAF2E8" d="M968.869,0.058c-4.197,0-2.939,68.742-2.84,71.816c1.798,55.574,10.919,110.779,31.955,162.46
		c12.184,29.932,27.551,58.893,44.036,86.669c33.709,56.797,57.773,116.659,67.466,182.183
		c9.441,63.829,9.879,127.246,47.559,182.518c28.699,42.098,65.083,75.66,110.797,98.354c14.559,7.227,29.749,13.233,45.139,18.444
		c94.5,32,169.01-5.001,169.01-5.001L1583.495,749c0,0,92.622-38.5,180.122-31S1891,731,1903,730.5V918L-1,917.885V0
		C-1,0,968.863,0.058,968.869,0.058z"/>
</g>
</svg>
